{"title":"Night of The Creeps 3D - Theatrical Version - HSBS - 1986 -FIXED","uid":11341347,"size":6045134767,"categoryP":"video","categoryS":"3d","magnet":"?xt=urn:btih:4736ed6398e944c7d93d6a0416eb0b8e4afe5a5b&amp;dn=Night+of+The+Creeps+3D+-+Theatrical+Version+-+HSBS+-+1986+-FIXED&amp;tr=udp%3A%2F%2Ftracker.openbittorrent.com%3A80&amp;tr=udp%3A%2F%2Fopen.demonii.com%3A1337&amp;tr=udp%3A%2F%2Ftracker.coppersurfer.tk%3A6969&amp;tr=udp%3A%2F%2Fexodus.desync.com%3A6969","seeders":1,"leechers":1,"uploader":null,"files":-1,"time":1414803433,"description":"Alien brain parasites, entering humans through the mouth, turn their host into a killing zombie. Some teenagers start to fight against them.\n\nDirector:\nFred Dekker\nWriter:\nFred Dekker\nStars:\nJason Lively, Tom Atkins, Steve Marshall \n\nFormat                                   : Matroska\nFormat version                           : Version 2\nFile size                                : 5.63 GiB\nDuration                                 : 1h 29mn\nOverall bit rate                         : 8 970 Kbps\n\nVideo\nID                                       : 1\nFormat                                   : AVC\nFormat/Info                              : Advanced Video Codec\nFormat profile                           : &lt;a class=&quot;__cf_email__&quot; href=&quot;/cdn-cgi/l/email-protection&quot; data-cfemail=&quot;723a1b151a323e465c43&quot;&gt;[email&amp;#160;protected]&lt;/a&gt;&lt;script cf-hash='f9e31' type=&quot;text/javascript&quot;&gt;\n/* &lt;![CDATA[ */!function(){try{var t=&quot;currentScript&quot;in document?document.currentScript:function(){for(var t=document.getElementsByTagName(&quot;script&quot;),e=t.length;e--;)if(t[e].getAttribute(&quot;cf-hash&quot;))return t[e]}();if(t&amp;&amp;t.previousSibling){var e,r,n,i,c=t.previousSibling,a=c.getAttribute(&quot;data-cfemail&quot;);if(a){for(e=&quot;&quot;,r=parseInt(a.substr(0,2),16),n=2;a.length-n;n+=2)i=parseInt(a.substr(n,2),16)^r,e+=String.fromCharCode(i);e=document.createTextNode(e),c.parentNode.replaceChild(e,c)}}}catch(u){}}();/* ]]&gt; */&lt;/script&gt;\nFormat settings, CABAC                   : Yes\nFormat settings, ReFrames                : 2 frames\nCodec ID                                 : V_MPEG4/ISO/AVC\nDuration                                 : 1h 29mn\nBit rate                                 : 7 458 Kbps\nWidth                                    : 1 920 pixels\nHeight                                   : 1 080 pixels\nDisplay aspect ratio                     : 16:9\nFrame rate mode                          : Constant\nFrame rate                               : 23.976 fps\nColor space                              : YUV\nChroma subsampling                       : 4:2:0\nBit depth                                : 8 bits\nScan type                                : Progressive\nBits/(Pixel*Frame)                       : 0.150\nStream size                              : 4.57 GiB (81%)\nWriting library                          : x264 core 142\n\nAudio\nID                                       : 2\nFormat                                   : DTS\nFormat/Info                              : Digital Theater Systems\nMode                                     : 16\nFormat settings, Endianness              : Big\nCodec ID                                 : A_DTS\nDuration                                 : 1h 29mn\nBit rate mode                            : Constant\nBit rate                                 : 1 509 Kbps\nChannel(s)                               : 6 channels\nChannel positions                        : Front: L C R, Side: L R, LFE\nSampling rate                            : 48.0 KHz\nBit depth                                : 24 bits\nCompression mode                         : Lossy\nStream size                              : 970 MiB (17%)\nLanguage                                 : English","torrent":{"xt":"urn:btih:4736ed6398e944c7d93d6a0416eb0b8e4afe5a5b","amp;dn":"Night+of+The+Creeps+3D+-+Theatrical+Version+-+HSBS+-+1986+-FIXED","amp;tr":["udp%3A%2F%2Ftracker.openbittorrent.com%3A80","udp%3A%2F%2Fopen.demonii.com%3A1337","udp%3A%2F%2Ftracker.coppersurfer.tk%3A6969","udp%3A%2F%2Fexodus.desync.com%3A6969"],"infoHash":"4736ed6398e944c7d93d6a0416eb0b8e4afe5a5b","infoHashBuffer":{"type":"Buffer","data":[71,54,237,99,152,233,68,199,217,61,106,4,22,235,11,142,74,254,90,91]},"announce":[],"urlList":[]}}